<svg width="512" height="512" viewBox="0 0 512 512" fill="none" xmlns="http://www.w3.org/2000/svg">
  <rect width="512" height="512" rx="120" fill="#F2E6D8"/>
  <rect x="112" y="92" width="208" height="300" rx="32" fill="#FFF9F1"/>
  <path d="M288 92H320C337.673 92 352 106.327 352 124V156L288 92Z" fill="#E7D9C7"/>
  <rect x="144" y="160" width="164" height="24" rx="12" fill="#214E4D"/>
  <rect x="144" y="208" width="120" height="24" rx="12" fill="#214E4D"/>
  <path d="M352 248C352 207.131 318.869 174 278 174C237.131 174 204 207.131 204 248V295.067L182.898 320.811C175.848 329.411 181.964 342 193.083 342H362.917C374.036 342 380.152 329.411 373.102 320.811L352 295.067V248Z" fill="#C4694E"/>
  <path d="M278 386C297.167 386 312.911 372.422 315.908 354H240.092C243.089 372.422 258.833 386 278 386Z" fill="#FFF9F1"/>
</svg>
